<svg width="51" height="14" viewBox="0 0 51 14" fill="none" xmlns="http://www.w3.org/2000/svg">
<path d="M8.54632 1.06904C8.56476 0.926966 8.44396 0.805901 8.30219 0.824381L3.99178 1.38626C3.81251 1.40963 3.738 1.62903 3.86583 1.75714L4.52933 2.18433C4.6755 2.27844 4.69754 2.48379 4.5747 2.6069L2.05582 5.13126C1.44965 5.73875 1.44965 6.72367 2.05582 7.33115C2.66199 7.93864 3.64479 7.93863 4.25096 7.33115L6.76968 4.80694C6.89257 4.68378 7.09758 4.70594 7.19143 4.85253L7.61559 5.51502C7.74342 5.64313 7.96235 5.56847 7.98566 5.38881L8.54632 1.06904Z" fill="white"/>
<path d="M2.7186 12.3896C2.11244 11.7821 2.11243 10.7972 2.7186 10.1897L5.68004 7.22185C6.28621 6.61436 7.269 6.61436 7.87517 7.22185C8.48134 7.82933 8.48134 8.81425 7.87517 9.42174L4.91373 12.3896C4.30757 12.9971 3.32477 12.9971 2.7186 12.3896Z" fill="white"/>
<path d="M1.80886 5.44925C1.38024 6.19326 1.6346 7.14463 2.377 7.57418L5.28245 9.25526L5.28748 9.25818C5.8557 9.58974 6.13606 10.2278 6.04036 10.8426C5.98175 11.2191 5.73631 11.5379 5.47741 11.8169L7.77286 9.5154C7.90819 9.40175 8.02632 9.26284 8.11972 9.10072C8.54834 8.35671 8.29398 7.40534 7.55157 6.97579L4.64613 5.29471L4.6411 5.29179C4.07288 4.96023 3.79252 4.32214 3.88822 3.70737C3.94683 3.33088 4.19226 3.01208 4.45116 2.73303L2.15571 5.03456C2.02039 5.14822 1.90226 5.28713 1.80886 5.44925Z" fill="white"/>
<path d="M16.4437 10.5493C16.0309 10.5493 15.6181 10.4989 15.2052 10.3982C14.7924 10.2974 14.4344 10.1499 14.1312 9.95562C13.9506 9.84768 13.8378 9.70376 13.7926 9.52386C13.7474 9.33677 13.7571 9.15687 13.8216 8.98417C13.8861 8.81147 13.9893 8.68913 14.1312 8.61718C14.2732 8.54522 14.4441 8.56321 14.6441 8.67114C14.9021 8.83665 15.1891 8.95898 15.5052 9.03814C15.8213 9.11729 16.1341 9.15687 16.4437 9.15687C16.9082 9.15687 17.2404 9.07771 17.4403 8.9194C17.6467 8.7539 17.75 8.54881 17.75 8.30415C17.75 8.09547 17.679 7.92996 17.5371 7.80763C17.3952 7.6853 17.1468 7.58096 16.7921 7.49461L15.6987 7.23556C14.4796 6.94772 13.87 6.24252 13.87 5.11995C13.87 4.63783 13.9861 4.21686 14.2183 3.85707C14.4505 3.49008 14.7731 3.20584 15.1859 3.00435C15.6052 2.80286 16.089 2.70212 16.6372 2.70212C16.9985 2.70212 17.3532 2.75249 17.7016 2.85324C18.0499 2.94678 18.3563 3.0871 18.6208 3.2742C18.782 3.38214 18.882 3.52246 18.9207 3.69516C18.9594 3.86786 18.9465 4.03337 18.882 4.19168C18.824 4.34999 18.7207 4.46153 18.5724 4.52629C18.4305 4.59105 18.2531 4.56587 18.0402 4.45073C17.8274 4.3284 17.6016 4.23845 17.3629 4.18088C17.1243 4.12332 16.8791 4.09453 16.6276 4.09453C16.2212 4.09453 15.9051 4.18448 15.6794 4.36438C15.46 4.53708 15.3504 4.76376 15.3504 5.0444C15.3504 5.25308 15.4181 5.42218 15.5536 5.55171C15.689 5.68124 15.9245 5.78558 16.2599 5.86473L17.3532 6.12379C18.6046 6.42601 19.2303 7.10963 19.2303 8.17463C19.2303 8.64956 19.1142 9.06692 18.882 9.42672C18.6562 9.77932 18.3337 10.0564 17.9144 10.2578C17.5016 10.4521 17.0114 10.5493 16.4437 10.5493Z" fill="white"/>
<path d="M22.3439 10.5493C21.0086 10.5493 20.341 9.82609 20.341 8.37971V6.35046H19.9346C19.554 6.35046 19.3637 6.14897 19.3637 5.746C19.3637 5.33583 19.554 5.13075 19.9346 5.13075H20.341V4.31041C20.341 3.75632 20.5861 3.47928 21.0763 3.47928C21.5601 3.47928 21.802 3.75632 21.802 4.31041V5.13075H22.7212C23.0953 5.13075 23.2824 5.33583 23.2824 5.746C23.2824 6.14897 23.0953 6.35046 22.7212 6.35046H21.802V8.31495C21.802 8.61718 21.8633 8.84385 21.9859 8.99496C22.1149 9.14608 22.3181 9.22163 22.5954 9.22163C22.6922 9.22163 22.7825 9.21084 22.8663 9.18925C22.9502 9.16766 23.0276 9.15327 23.0986 9.14608C23.1889 9.13888 23.263 9.17126 23.3211 9.24322C23.3792 9.31518 23.4082 9.4627 23.4082 9.68577C23.4082 9.86567 23.3824 10.0204 23.3308 10.1499C23.2792 10.2722 23.1889 10.3622 23.0599 10.4198C22.976 10.4557 22.8599 10.4845 22.7115 10.5061C22.5696 10.5349 22.4471 10.5493 22.3439 10.5493Z" fill="white"/>
<path d="M26.2073 10.5493C25.6977 10.5493 25.2527 10.4377 24.8721 10.2147C24.498 9.9844 24.2077 9.66418 24.0013 9.25401C23.7949 8.83665 23.6916 8.34373 23.6916 7.77525C23.6916 7.21397 23.7949 6.72824 24.0013 6.31808C24.2077 5.90071 24.498 5.58049 24.8721 5.35742C25.2527 5.13435 25.6977 5.02281 26.2073 5.02281C26.7169 5.02281 27.1588 5.13435 27.5329 5.35742C27.9135 5.58049 28.207 5.90071 28.4134 6.31808C28.6262 6.72824 28.7327 7.21397 28.7327 7.77525C28.7327 8.34373 28.6262 8.83665 28.4134 9.25401C28.207 9.66418 27.9135 9.9844 27.5329 10.2147C27.1588 10.4377 26.7169 10.5493 26.2073 10.5493ZM26.2073 9.32957C26.5169 9.32957 26.7685 9.20364 26.962 8.95179C27.162 8.69993 27.262 8.30775 27.262 7.77525C27.262 7.24995 27.162 6.86497 26.962 6.62031C26.7685 6.36845 26.5169 6.24252 26.2073 6.24252C25.8977 6.24252 25.6461 6.36845 25.4526 6.62031C25.2591 6.86497 25.1623 7.24995 25.1623 7.77525C25.1623 8.30775 25.2591 8.69993 25.4526 8.95179C25.6461 9.20364 25.8977 9.32957 26.2073 9.32957Z" fill="white"/>
<path d="M31.8373 10.5493C31.3212 10.5493 30.8697 10.4377 30.4827 10.2147C30.1021 9.9844 29.8086 9.66058 29.6022 9.24322C29.3958 8.82586 29.2926 8.33294 29.2926 7.76446C29.2926 7.19598 29.3958 6.70666 29.6022 6.29649C29.8086 5.88632 30.1021 5.5733 30.4827 5.35742C30.8697 5.13435 31.3212 5.02281 31.8373 5.02281C32.0372 5.02281 32.2501 5.05159 32.4759 5.10916C32.7081 5.15953 32.9306 5.24948 33.1435 5.37901C33.3048 5.46536 33.4047 5.58769 33.4434 5.746C33.4821 5.89711 33.4725 6.04823 33.4144 6.19934C33.3628 6.35046 33.2757 6.46199 33.1532 6.53395C33.0371 6.59872 32.8984 6.58433 32.7371 6.49078C32.4791 6.33966 32.2275 6.26411 31.9824 6.26411C31.6018 6.26411 31.3051 6.39723 31.0923 6.66348C30.8858 6.92253 30.7826 7.29312 30.7826 7.77525C30.7826 8.25018 30.8858 8.62437 31.0923 8.89782C31.3051 9.16407 31.6018 9.29719 31.9824 9.29719C32.0985 9.29719 32.2211 9.2828 32.3501 9.25401C32.4791 9.21804 32.6081 9.16047 32.7371 9.08131C32.8984 8.98777 33.0371 8.97697 33.1532 9.04893C33.2757 9.12089 33.3596 9.23243 33.4047 9.38354C33.4499 9.52746 33.4531 9.67857 33.4144 9.83688C33.3757 9.9952 33.279 10.1175 33.1241 10.2039C32.9048 10.3262 32.6855 10.4126 32.4662 10.4629C32.2469 10.5205 32.0372 10.5493 31.8373 10.5493Z" fill="white"/>
<path d="M34.9774 10.5277C34.4872 10.5277 34.2421 10.2507 34.2421 9.69656V3.55484C34.2421 3.00075 34.4872 2.72371 34.9774 2.72371C35.4612 2.72371 35.7031 3.00075 35.7031 3.55484V7.32191H35.7224L37.1254 5.58409C37.2673 5.40419 37.3963 5.27107 37.5124 5.18472C37.6286 5.09117 37.7898 5.0444 37.9962 5.0444C38.1962 5.0444 38.351 5.10196 38.4607 5.2171C38.5703 5.32504 38.6251 5.46536 38.6251 5.63806C38.6251 5.80357 38.5606 5.96548 38.4316 6.12379L37.1931 7.66731L38.5961 9.46989C38.7187 9.64259 38.7703 9.8117 38.7509 9.97721C38.738 10.1355 38.6735 10.2686 38.5574 10.3766C38.4413 10.4773 38.2929 10.5277 38.1123 10.5277C37.8866 10.5277 37.7092 10.4809 37.5802 10.3874C37.4576 10.2938 37.3254 10.1499 37.1835 9.95562L35.7224 8.14224H35.7031V9.69656C35.7031 10.2507 35.4612 10.5277 34.9774 10.5277Z" fill="white"/>
<path d="M40.0825 4.1593C39.8116 4.1593 39.6019 4.09094 39.4536 3.95421C39.3116 3.81029 39.2407 3.60881 39.2407 3.34976C39.2407 3.08351 39.3116 2.88202 39.4536 2.7453C39.6019 2.60138 39.8116 2.52942 40.0825 2.52942C40.6372 2.52942 40.9146 2.80286 40.9146 3.34976C40.9146 3.88945 40.6372 4.1593 40.0825 4.1593ZM40.0825 10.5169C39.8438 10.5169 39.66 10.4413 39.531 10.2902C39.4084 10.1319 39.3471 9.91244 39.3471 9.6318V5.94029C39.3471 5.34303 39.5922 5.0444 40.0825 5.0444C40.3147 5.0444 40.4921 5.12355 40.6146 5.28186C40.7436 5.43298 40.8081 5.65245 40.8081 5.94029V9.6318C40.8081 9.91244 40.7469 10.1319 40.6243 10.2902C40.5018 10.4413 40.3211 10.5169 40.0825 10.5169Z" fill="white"/>
<path d="M44.268 10.5493C42.9327 10.5493 42.2651 9.82609 42.2651 8.37971V6.35046H41.8587C41.4781 6.35046 41.2879 6.14897 41.2879 5.746C41.2879 5.33583 41.4781 5.13075 41.8587 5.13075H42.2651V4.31041C42.2651 3.75632 42.5102 3.47928 43.0004 3.47928C43.4842 3.47928 43.7261 3.75632 43.7261 4.31041V5.13075H44.6453C45.0194 5.13075 45.2065 5.33583 45.2065 5.746C45.2065 6.14897 45.0194 6.35046 44.6453 6.35046H43.7261V8.31495C43.7261 8.61718 43.7874 8.84385 43.91 8.99496C44.039 9.14608 44.2422 9.22163 44.5195 9.22163C44.6163 9.22163 44.7066 9.21084 44.7904 9.18925C44.8743 9.16766 44.9517 9.15327 45.0227 9.14608C45.113 9.13888 45.1871 9.17126 45.2452 9.24322C45.3033 9.31518 45.3323 9.4627 45.3323 9.68577C45.3323 9.86567 45.3065 10.0204 45.2549 10.1499C45.2033 10.2722 45.113 10.3622 44.984 10.4198C44.9001 10.4557 44.784 10.4845 44.6356 10.5061C44.4937 10.5349 44.3712 10.5493 44.268 10.5493Z" fill="white"/>
<path d="M47.338 12.4706C47.08 12.4706 46.8962 12.3627 46.7865 12.1468C46.6833 11.9381 46.6898 11.6934 46.8059 11.4128L47.3187 10.1391L45.7415 6.1022C45.6383 5.82156 45.6383 5.5769 45.7415 5.36821C45.8512 5.15234 46.0673 5.0444 46.3898 5.0444C46.564 5.0444 46.7026 5.09117 46.8059 5.18472C46.9155 5.27107 47.0155 5.44017 47.1058 5.69203L48.0927 8.49844L49.1183 5.68124C49.2087 5.43657 49.3086 5.27107 49.4183 5.18472C49.5344 5.09117 49.6892 5.0444 49.8827 5.0444C50.1278 5.0444 50.2988 5.15234 50.3955 5.36821C50.4987 5.5769 50.4955 5.81796 50.3859 6.0914L48.1121 11.8445C48.0153 12.0892 47.9057 12.2547 47.7831 12.3411C47.667 12.4274 47.5186 12.4706 47.338 12.4706Z" fill="white"/>
</svg>
