<svg width="286" height="226" viewBox="0 0 286 226" fill="none" xmlns="http://www.w3.org/2000/svg">
<path opacity="0.8" d="M4 222.09C3.46667 222.09 3.01 222.013 2.63 221.86C2.25667 221.707 1.96667 221.483 1.76 221.19C1.56 220.897 1.46 220.54 1.46 220.12C1.46 219.793 1.52667 219.503 1.66 219.25C1.8 218.99 1.99 218.78 2.23 218.62C2.47 218.46 2.74667 218.36 3.06 218.32V218.48C2.62 218.387 2.27 218.183 2.01 217.87C1.75667 217.55 1.63 217.173 1.63 216.74C1.63 216.347 1.72667 216.01 1.92 215.73C2.12 215.443 2.39667 215.227 2.75 215.08C3.10333 214.933 3.52 214.86 4 214.86C4.48667 214.86 4.90667 214.933 5.26 215.08C5.61333 215.227 5.88667 215.443 6.08 215.73C6.27333 216.01 6.37 216.347 6.37 216.74C6.37 217.027 6.31 217.293 6.19 217.54C6.07667 217.787 5.91333 217.99 5.7 218.15C5.49333 218.31 5.24667 218.42 4.96 218.48V218.32C5.42667 218.387 5.80667 218.583 6.1 218.91C6.39333 219.23 6.54 219.633 6.54 220.12C6.54 220.54 6.43667 220.897 6.23 221.19C6.03 221.483 5.74 221.707 5.36 221.86C4.98667 222.013 4.53333 222.09 4 222.09ZM4 221.34C4.54667 221.34 4.96 221.233 5.24 221.02C5.52 220.807 5.66 220.49 5.66 220.07C5.66 219.643 5.52 219.327 5.24 219.12C4.96 218.913 4.54667 218.81 4 218.81C3.46 218.81 3.04667 218.913 2.76 219.12C2.48 219.327 2.34 219.643 2.34 220.07C2.34 220.49 2.48 220.807 2.76 221.02C3.04667 221.233 3.46 221.34 4 221.34ZM4 218.05C4.31333 218.05 4.58 218.003 4.8 217.91C5.02 217.81 5.19 217.667 5.31 217.48C5.43 217.293 5.49 217.073 5.49 216.82C5.49 216.44 5.35667 216.143 5.09 215.93C4.83 215.717 4.46667 215.61 4 215.61C3.53333 215.61 3.17 215.717 2.91 215.93C2.65 216.143 2.52 216.44 2.52 216.82C2.52 217.207 2.65 217.51 2.91 217.73C3.17 217.943 3.53333 218.05 4 218.05ZM8.16609 222.04C7.99276 222.04 7.84943 221.983 7.73609 221.87C7.62276 221.757 7.56609 221.613 7.56609 221.44C7.56609 221.267 7.62276 221.127 7.73609 221.02C7.84943 220.913 7.99276 220.86 8.16609 220.86C8.35276 220.86 8.49609 220.913 8.59609 221.02C8.70276 221.127 8.75609 221.267 8.75609 221.44C8.75609 221.613 8.70276 221.757 8.59609 221.87C8.49609 221.983 8.35276 222.04 8.16609 222.04ZM8.16609 218.27C7.99276 218.27 7.84943 218.217 7.73609 218.11C7.62276 217.997 7.56609 217.853 7.56609 217.68C7.56609 217.507 7.62276 217.367 7.73609 217.26C7.84943 217.147 7.99276 217.09 8.16609 217.09C8.35276 217.09 8.49609 217.147 8.59609 217.26C8.70276 217.367 8.75609 217.507 8.75609 217.68C8.75609 217.853 8.70276 217.997 8.59609 218.11C8.49609 218.217 8.35276 218.27 8.16609 218.27ZM12.3301 222.09C11.5167 222.09 10.8967 221.78 10.4701 221.16C10.0501 220.533 9.84008 219.637 9.84008 218.47C9.84008 217.677 9.93341 217.013 10.1201 216.48C10.3134 215.947 10.5934 215.543 10.9601 215.27C11.3334 214.997 11.7901 214.86 12.3301 214.86C13.1501 214.86 13.7701 215.167 14.1901 215.78C14.6101 216.387 14.8201 217.28 14.8201 218.46C14.8201 219.24 14.7234 219.9 14.5301 220.44C14.3434 220.98 14.0667 221.39 13.7001 221.67C13.3334 221.95 12.8767 222.09 12.3301 222.09ZM12.3301 221.3C12.8634 221.3 13.2601 221.07 13.5201 220.61C13.7801 220.15 13.9101 219.433 13.9101 218.46C13.9101 217.487 13.7801 216.777 13.5201 216.33C13.2667 215.877 12.8701 215.65 12.3301 215.65C11.7967 215.65 11.4001 215.877 11.1401 216.33C10.8801 216.777 10.7501 217.487 10.7501 218.46C10.7501 219.433 10.8801 220.15 11.1401 220.61C11.4001 221.07 11.7967 221.3 12.3301 221.3ZM18.3262 222.09C17.5128 222.09 16.8928 221.78 16.4662 221.16C16.0462 220.533 15.8362 219.637 15.8362 218.47C15.8362 217.677 15.9295 217.013 16.1162 216.48C16.3095 215.947 16.5895 215.543 16.9562 215.27C17.3295 214.997 17.7862 214.86 18.3262 214.86C19.1462 214.86 19.7662 215.167 20.1862 215.78C20.6062 216.387 20.8162 217.28 20.8162 218.46C20.8162 219.24 20.7195 219.9 20.5262 220.44C20.3395 220.98 20.0628 221.39 19.6962 221.67C19.3295 221.95 18.8728 222.09 18.3262 222.09ZM18.3262 221.3C18.8595 221.3 19.2562 221.07 19.5162 220.61C19.7762 220.15 19.9062 219.433 19.9062 218.46C19.9062 217.487 19.7762 216.777 19.5162 216.33C19.2628 215.877 18.8662 215.65 18.3262 215.65C17.7928 215.65 17.3962 215.877 17.1362 216.33C16.8762 216.777 16.7462 217.487 16.7462 218.46C16.7462 219.433 16.8762 220.15 17.1362 220.61C17.3962 221.07 17.7928 221.3 18.3262 221.3Z" fill="#6F6F6F"/>
<path opacity="0.8" d="M97 222.09C96.4667 222.09 96.01 222.013 95.63 221.86C95.2567 221.707 94.9667 221.483 94.76 221.19C94.56 220.897 94.46 220.54 94.46 220.12C94.46 219.793 94.5267 219.503 94.66 219.25C94.8 218.99 94.99 218.78 95.23 218.62C95.47 218.46 95.7467 218.36 96.06 218.32V218.48C95.62 218.387 95.27 218.183 95.01 217.87C94.7567 217.55 94.63 217.173 94.63 216.74C94.63 216.347 94.7267 216.01 94.92 215.73C95.12 215.443 95.3967 215.227 95.75 215.08C96.1033 214.933 96.52 214.86 97 214.86C97.4867 214.86 97.9067 214.933 98.26 215.08C98.6133 215.227 98.8867 215.443 99.08 215.73C99.2733 216.01 99.37 216.347 99.37 216.74C99.37 217.027 99.31 217.293 99.19 217.54C99.0767 217.787 98.9133 217.99 98.7 218.15C98.4933 218.31 98.2467 218.42 97.96 218.48V218.32C98.4267 218.387 98.8067 218.583 99.1 218.91C99.3933 219.23 99.54 219.633 99.54 220.12C99.54 220.54 99.4367 220.897 99.23 221.19C99.03 221.483 98.74 221.707 98.36 221.86C97.9867 222.013 97.5333 222.09 97 222.09ZM97 221.34C97.5467 221.34 97.96 221.233 98.24 221.02C98.52 220.807 98.66 220.49 98.66 220.07C98.66 219.643 98.52 219.327 98.24 219.12C97.96 218.913 97.5467 218.81 97 218.81C96.46 218.81 96.0467 218.913 95.76 219.12C95.48 219.327 95.34 219.643 95.34 220.07C95.34 220.49 95.48 220.807 95.76 221.02C96.0467 221.233 96.46 221.34 97 221.34ZM97 218.05C97.3133 218.05 97.58 218.003 97.8 217.91C98.02 217.81 98.19 217.667 98.31 217.48C98.43 217.293 98.49 217.073 98.49 216.82C98.49 216.44 98.3567 216.143 98.09 215.93C97.83 215.717 97.4667 215.61 97 215.61C96.5333 215.61 96.17 215.717 95.91 215.93C95.65 216.143 95.52 216.44 95.52 216.82C95.52 217.207 95.65 217.51 95.91 217.73C96.17 217.943 96.5333 218.05 97 218.05ZM101.166 222.04C100.993 222.04 100.849 221.983 100.736 221.87C100.623 221.757 100.566 221.613 100.566 221.44C100.566 221.267 100.623 221.127 100.736 221.02C100.849 220.913 100.993 220.86 101.166 220.86C101.353 220.86 101.496 220.913 101.596 221.02C101.703 221.127 101.756 221.267 101.756 221.44C101.756 221.613 101.703 221.757 101.596 221.87C101.496 221.983 101.353 222.04 101.166 222.04ZM101.166 218.27C100.993 218.27 100.849 218.217 100.736 218.11C100.623 217.997 100.566 217.853 100.566 217.68C100.566 217.507 100.623 217.367 100.736 217.26C100.849 217.147 100.993 217.09 101.166 217.09C101.353 217.09 101.496 217.147 101.596 217.26C101.703 217.367 101.756 217.507 101.756 217.68C101.756 217.853 101.703 217.997 101.596 218.11C101.496 218.217 101.353 218.27 101.166 218.27ZM105.33 222.09C104.517 222.09 103.897 221.78 103.47 221.16C103.05 220.533 102.84 219.637 102.84 218.47C102.84 217.677 102.933 217.013 103.12 216.48C103.313 215.947 103.593 215.543 103.96 215.27C104.333 214.997 104.79 214.86 105.33 214.86C106.15 214.86 106.77 215.167 107.19 215.78C107.61 216.387 107.82 217.28 107.82 218.46C107.82 219.24 107.723 219.9 107.53 220.44C107.343 220.98 107.067 221.39 106.7 221.67C106.333 221.95 105.877 222.09 105.33 222.09ZM105.33 221.3C105.863 221.3 106.26 221.07 106.52 220.61C106.78 220.15 106.91 219.433 106.91 218.46C106.91 217.487 106.78 216.777 106.52 216.33C106.267 215.877 105.87 215.65 105.33 215.65C104.797 215.65 104.4 215.877 104.14 216.33C103.88 216.777 103.75 217.487 103.75 218.46C103.75 219.433 103.88 220.15 104.14 220.61C104.4 221.07 104.797 221.3 105.33 221.3ZM109.626 222C109.466 222 109.346 221.963 109.266 221.89C109.193 221.81 109.156 221.703 109.156 221.57C109.156 221.49 109.176 221.41 109.216 221.33C109.256 221.25 109.316 221.17 109.396 221.09L111.586 218.74C111.92 218.387 112.16 218.06 112.306 217.76C112.453 217.46 112.526 217.157 112.526 216.85C112.526 216.463 112.406 216.17 112.166 215.97C111.933 215.763 111.59 215.66 111.136 215.66C110.856 215.66 110.586 215.707 110.326 215.8C110.073 215.887 109.823 216.023 109.576 216.21C109.483 216.277 109.396 216.307 109.316 216.3C109.236 216.293 109.166 216.263 109.106 216.21C109.053 216.15 109.013 216.083 108.986 216.01C108.966 215.93 108.97 215.847 108.996 215.76C109.023 215.673 109.08 215.6 109.166 215.54C109.44 215.327 109.756 215.16 110.116 215.04C110.476 214.92 110.846 214.86 111.226 214.86C111.706 214.86 112.11 214.937 112.436 215.09C112.77 215.237 113.023 215.453 113.196 215.74C113.37 216.02 113.456 216.363 113.456 216.77C113.456 217.05 113.41 217.327 113.316 217.6C113.223 217.867 113.083 218.14 112.896 218.42C112.716 218.7 112.483 218.99 112.196 219.29L110.116 221.48V221.21H113.396C113.53 221.21 113.63 221.243 113.696 221.31C113.77 221.377 113.806 221.473 113.806 221.6C113.806 221.727 113.77 221.827 113.696 221.9C113.63 221.967 113.53 222 113.396 222H109.626Z" fill="#6F6F6F"/>
<path opacity="0.8" d="M190 222.09C189.467 222.09 189.01 222.013 188.63 221.86C188.257 221.707 187.967 221.483 187.76 221.19C187.56 220.897 187.46 220.54 187.46 220.12C187.46 219.793 187.527 219.503 187.66 219.25C187.8 218.99 187.99 218.78 188.23 218.62C188.47 218.46 188.747 218.36 189.06 218.32V218.48C188.62 218.387 188.27 218.183 188.01 217.87C187.757 217.55 187.63 217.173 187.63 216.74C187.63 216.347 187.727 216.01 187.92 215.73C188.12 215.443 188.397 215.227 188.75 215.08C189.103 214.933 189.52 214.86 190 214.86C190.487 214.86 190.907 214.933 191.26 215.08C191.613 215.227 191.887 215.443 192.08 215.73C192.273 216.01 192.37 216.347 192.37 216.74C192.37 217.027 192.31 217.293 192.19 217.54C192.077 217.787 191.913 217.99 191.7 218.15C191.493 218.31 191.247 218.42 190.96 218.48V218.32C191.427 218.387 191.807 218.583 192.1 218.91C192.393 219.23 192.54 219.633 192.54 220.12C192.54 220.54 192.437 220.897 192.23 221.19C192.03 221.483 191.74 221.707 191.36 221.86C190.987 222.013 190.533 222.09 190 222.09ZM190 221.34C190.547 221.34 190.96 221.233 191.24 221.02C191.52 220.807 191.66 220.49 191.66 220.07C191.66 219.643 191.52 219.327 191.24 219.12C190.96 218.913 190.547 218.81 190 218.81C189.46 218.81 189.047 218.913 188.76 219.12C188.48 219.327 188.34 219.643 188.34 220.07C188.34 220.49 188.48 220.807 188.76 221.02C189.047 221.233 189.46 221.34 190 221.34ZM190 218.05C190.313 218.05 190.58 218.003 190.8 217.91C191.02 217.81 191.19 217.667 191.31 217.48C191.43 217.293 191.49 217.073 191.49 216.82C191.49 216.44 191.357 216.143 191.09 215.93C190.83 215.717 190.467 215.61 190 215.61C189.533 215.61 189.17 215.717 188.91 215.93C188.65 216.143 188.52 216.44 188.52 216.82C188.52 217.207 188.65 217.51 188.91 217.73C189.17 217.943 189.533 218.05 190 218.05ZM194.166 222.04C193.993 222.04 193.849 221.983 193.736 221.87C193.623 221.757 193.566 221.613 193.566 221.44C193.566 221.267 193.623 221.127 193.736 221.02C193.849 220.913 193.993 220.86 194.166 220.86C194.353 220.86 194.496 220.913 194.596 221.02C194.703 221.127 194.756 221.267 194.756 221.44C194.756 221.613 194.703 221.757 194.596 221.87C194.496 221.983 194.353 222.04 194.166 222.04ZM194.166 218.27C193.993 218.27 193.849 218.217 193.736 218.11C193.623 217.997 193.566 217.853 193.566 217.68C193.566 217.507 193.623 217.367 193.736 217.26C193.849 217.147 193.993 217.09 194.166 217.09C194.353 217.09 194.496 217.147 194.596 217.26C194.703 217.367 194.756 217.507 194.756 217.68C194.756 217.853 194.703 217.997 194.596 218.11C194.496 218.217 194.353 218.27 194.166 218.27ZM198.33 222.09C197.517 222.09 196.897 221.78 196.47 221.16C196.05 220.533 195.84 219.637 195.84 218.47C195.84 217.677 195.933 217.013 196.12 216.48C196.313 215.947 196.593 215.543 196.96 215.27C197.333 214.997 197.79 214.86 198.33 214.86C199.15 214.86 199.77 215.167 200.19 215.78C200.61 216.387 200.82 217.28 200.82 218.46C200.82 219.24 200.723 219.9 200.53 220.44C200.343 220.98 200.067 221.39 199.7 221.67C199.333 221.95 198.877 222.09 198.33 222.09ZM198.33 221.3C198.863 221.3 199.26 221.07 199.52 220.61C199.78 220.15 199.91 219.433 199.91 218.46C199.91 217.487 199.78 216.777 199.52 216.33C199.267 215.877 198.87 215.65 198.33 215.65C197.797 215.65 197.4 215.877 197.14 216.33C196.88 216.777 196.75 217.487 196.75 218.46C196.75 219.433 196.88 220.15 197.14 220.61C197.4 221.07 197.797 221.3 198.33 221.3ZM205.496 222.07C205.35 222.07 205.236 222.03 205.156 221.95C205.076 221.87 205.036 221.753 205.036 221.6V220.53H202.256C202.11 220.53 201.99 220.497 201.896 220.43C201.81 220.363 201.766 220.26 201.766 220.12C201.766 220.04 201.786 219.957 201.826 219.87C201.866 219.783 201.936 219.667 202.036 219.52L205.006 215.19C205.08 215.09 205.156 215.013 205.236 214.96C205.323 214.907 205.42 214.88 205.526 214.88C205.646 214.88 205.746 214.92 205.826 215C205.913 215.073 205.956 215.19 205.956 215.35V219.74H206.636C206.783 219.74 206.893 219.773 206.966 219.84C207.04 219.907 207.076 220.003 207.076 220.13C207.076 220.263 207.04 220.363 206.966 220.43C206.893 220.497 206.783 220.53 206.636 220.53H205.956V221.6C205.956 221.753 205.916 221.87 205.836 221.95C205.756 222.03 205.643 222.07 205.496 222.07ZM205.036 219.74V216.04H205.286L202.586 219.99V219.74H205.036Z" fill="#6F6F6F"/>
<path opacity="0.8" d="M261.55 210C261.423 210 261.323 209.963 261.25 209.89C261.177 209.817 261.14 209.72 261.14 209.6C261.14 209.473 261.177 209.377 261.25 209.31C261.323 209.243 261.423 209.21 261.55 209.21H262.81V203.72H263.29L261.83 204.66C261.737 204.72 261.647 204.747 261.56 204.74C261.48 204.727 261.41 204.693 261.35 204.64C261.29 204.58 261.25 204.51 261.23 204.43C261.21 204.35 261.213 204.27 261.24 204.19C261.273 204.103 261.34 204.033 261.44 203.98L262.82 203.08C262.92 203.02 263.013 202.973 263.1 202.94C263.193 202.9 263.283 202.88 263.37 202.88C263.47 202.88 263.557 202.91 263.63 202.97C263.703 203.03 263.74 203.127 263.74 203.26V209.21H264.9C265.033 209.21 265.133 209.243 265.2 209.31C265.273 209.377 265.31 209.473 265.31 209.6C265.31 209.727 265.273 209.827 265.2 209.9C265.133 209.967 265.033 210 264.9 210H261.55ZM267.266 210.98C267.199 211.067 267.126 211.117 267.046 211.13C266.973 211.143 266.906 211.13 266.846 211.09C266.793 211.05 266.763 210.99 266.756 210.91C266.749 210.83 266.783 210.743 266.856 210.65C266.969 210.503 267.046 210.357 267.086 210.21C267.133 210.063 267.156 209.927 267.156 209.8L267.196 210.04C267.009 210.04 266.856 209.987 266.736 209.88C266.623 209.767 266.566 209.62 266.566 209.44C266.566 209.267 266.619 209.127 266.726 209.02C266.833 208.913 266.976 208.86 267.156 208.86C267.336 208.86 267.479 208.923 267.586 209.05C267.699 209.17 267.756 209.35 267.756 209.59C267.756 209.73 267.739 209.877 267.706 210.03C267.679 210.19 267.633 210.35 267.566 210.51C267.499 210.67 267.399 210.827 267.266 210.98ZM271.33 210.09C270.517 210.09 269.897 209.78 269.47 209.16C269.05 208.533 268.84 207.637 268.84 206.47C268.84 205.677 268.933 205.013 269.12 204.48C269.313 203.947 269.593 203.543 269.96 203.27C270.333 202.997 270.79 202.86 271.33 202.86C272.15 202.86 272.77 203.167 273.19 203.78C273.61 204.387 273.82 205.28 273.82 206.46C273.82 207.24 273.723 207.9 273.53 208.44C273.343 208.98 273.067 209.39 272.7 209.67C272.333 209.95 271.877 210.09 271.33 210.09ZM271.33 209.3C271.863 209.3 272.26 209.07 272.52 208.61C272.78 208.15 272.91 207.433 272.91 206.46C272.91 205.487 272.78 204.777 272.52 204.33C272.267 203.877 271.87 203.65 271.33 203.65C270.797 203.65 270.4 203.877 270.14 204.33C269.88 204.777 269.75 205.487 269.75 206.46C269.75 207.433 269.88 208.15 270.14 208.61C270.4 209.07 270.797 209.3 271.33 209.3ZM277.456 210.09C277.083 210.09 276.706 210.037 276.326 209.93C275.953 209.817 275.613 209.647 275.306 209.42C275.22 209.36 275.16 209.29 275.126 209.21C275.1 209.123 275.096 209.04 275.116 208.96C275.136 208.88 275.176 208.813 275.236 208.76C275.296 208.7 275.366 208.667 275.446 208.66C275.533 208.653 275.623 208.68 275.716 208.74C275.983 208.927 276.26 209.067 276.546 209.16C276.833 209.247 277.133 209.29 277.446 209.29C277.76 209.29 278.03 209.23 278.256 209.11C278.483 208.99 278.656 208.823 278.776 208.61C278.903 208.397 278.966 208.147 278.966 207.86C278.966 207.42 278.836 207.06 278.576 206.78C278.316 206.5 277.963 206.36 277.516 206.36C277.243 206.36 276.99 206.41 276.756 206.51C276.53 206.603 276.316 206.763 276.116 206.99C276.07 207.043 276.01 207.09 275.936 207.13C275.87 207.17 275.793 207.19 275.706 207.19C275.58 207.19 275.483 207.157 275.416 207.09C275.35 207.017 275.316 206.92 275.316 206.8V203.37C275.316 203.237 275.353 203.133 275.426 203.06C275.5 202.987 275.603 202.95 275.736 202.95H279.106C279.24 202.95 279.343 202.983 279.416 203.05C279.49 203.117 279.526 203.213 279.526 203.34C279.526 203.467 279.49 203.567 279.416 203.64C279.343 203.707 279.24 203.74 279.106 203.74H276.226V206.41H275.966C276.146 206.143 276.386 205.937 276.686 205.79C276.993 205.643 277.33 205.57 277.696 205.57C278.143 205.57 278.526 205.667 278.846 205.86C279.173 206.047 279.426 206.31 279.606 206.65C279.786 206.983 279.876 207.373 279.876 207.82C279.876 208.26 279.776 208.653 279.576 209C279.383 209.34 279.106 209.607 278.746 209.8C278.386 209.993 277.956 210.09 277.456 210.09Z" fill="#6F6F6F"/>
<path opacity="0.8" d="M261.55 160C261.423 160 261.323 159.963 261.25 159.89C261.177 159.817 261.14 159.72 261.14 159.6C261.14 159.473 261.177 159.377 261.25 159.31C261.323 159.243 261.423 159.21 261.55 159.21H262.81V153.72H263.29L261.83 154.66C261.737 154.72 261.647 154.747 261.56 154.74C261.48 154.727 261.41 154.693 261.35 154.64C261.29 154.58 261.25 154.51 261.23 154.43C261.21 154.35 261.213 154.27 261.24 154.19C261.273 154.103 261.34 154.033 261.44 153.98L262.82 153.08C262.92 153.02 263.013 152.973 263.1 152.94C263.193 152.9 263.283 152.88 263.37 152.88C263.47 152.88 263.557 152.91 263.63 152.97C263.703 153.03 263.74 153.127 263.74 153.26V159.21H264.9C265.033 159.21 265.133 159.243 265.2 159.31C265.273 159.377 265.31 159.473 265.31 159.6C265.31 159.727 265.273 159.827 265.2 159.9C265.133 159.967 265.033 160 264.9 160H261.55ZM267.266 160.98C267.199 161.067 267.126 161.117 267.046 161.13C266.973 161.143 266.906 161.13 266.846 161.09C266.793 161.05 266.763 160.99 266.756 160.91C266.749 160.83 266.783 160.743 266.856 160.65C266.969 160.503 267.046 160.357 267.086 160.21C267.133 160.063 267.156 159.927 267.156 159.8L267.196 160.04C267.009 160.04 266.856 159.987 266.736 159.88C266.623 159.767 266.566 159.62 266.566 159.44C266.566 159.267 266.619 159.127 266.726 159.02C266.833 158.913 266.976 158.86 267.156 158.86C267.336 158.86 267.479 158.923 267.586 159.05C267.699 159.17 267.756 159.35 267.756 159.59C267.756 159.73 267.739 159.877 267.706 160.03C267.679 160.19 267.633 160.35 267.566 160.51C267.499 160.67 267.399 160.827 267.266 160.98ZM271.33 160.09C270.517 160.09 269.897 159.78 269.47 159.16C269.05 158.533 268.84 157.637 268.84 156.47C268.84 155.677 268.933 155.013 269.12 154.48C269.313 153.947 269.593 153.543 269.96 153.27C270.333 152.997 270.79 152.86 271.33 152.86C272.15 152.86 272.77 153.167 273.19 153.78C273.61 154.387 273.82 155.28 273.82 156.46C273.82 157.24 273.723 157.9 273.53 158.44C273.343 158.98 273.067 159.39 272.7 159.67C272.333 159.95 271.877 160.09 271.33 160.09ZM271.33 159.3C271.863 159.3 272.26 159.07 272.52 158.61C272.78 158.15 272.91 157.433 272.91 156.46C272.91 155.487 272.78 154.777 272.52 154.33C272.267 153.877 271.87 153.65 271.33 153.65C270.797 153.65 270.4 153.877 270.14 154.33C269.88 154.777 269.75 155.487 269.75 156.46C269.75 157.433 269.88 158.15 270.14 158.61C270.4 159.07 270.797 159.3 271.33 159.3ZM276.016 160.07C275.91 160.07 275.816 160.043 275.736 159.99C275.663 159.937 275.616 159.867 275.596 159.78C275.583 159.687 275.606 159.58 275.666 159.46L278.836 153.37V153.74H275.316C275.183 153.74 275.08 153.707 275.006 153.64C274.933 153.567 274.896 153.47 274.896 153.35C274.896 153.223 274.933 153.127 275.006 153.06C275.08 152.987 275.183 152.95 275.316 152.95H279.266C279.4 152.95 279.506 152.987 279.586 153.06C279.673 153.127 279.716 153.223 279.716 153.35C279.716 153.457 279.703 153.55 279.676 153.63C279.65 153.703 279.61 153.79 279.556 153.89L276.536 159.76C276.483 159.867 276.413 159.947 276.326 160C276.246 160.047 276.143 160.07 276.016 160.07Z" fill="#6F6F6F"/>
<path opacity="0.8" d="M261.55 110C261.423 110 261.323 109.963 261.25 109.89C261.177 109.817 261.14 109.72 261.14 109.6C261.14 109.473 261.177 109.377 261.25 109.31C261.323 109.243 261.423 109.21 261.55 109.21H262.81V103.72H263.29L261.83 104.66C261.737 104.72 261.647 104.747 261.56 104.74C261.48 104.727 261.41 104.693 261.35 104.64C261.29 104.58 261.25 104.51 261.23 104.43C261.21 104.35 261.213 104.27 261.24 104.19C261.273 104.103 261.34 104.033 261.44 103.98L262.82 103.08C262.92 103.02 263.013 102.973 263.1 102.94C263.193 102.9 263.283 102.88 263.37 102.88C263.47 102.88 263.557 102.91 263.63 102.97C263.703 103.03 263.74 103.127 263.74 103.26V109.21H264.9C265.033 109.21 265.133 109.243 265.2 109.31C265.273 109.377 265.31 109.473 265.31 109.6C265.31 109.727 265.273 109.827 265.2 109.9C265.133 109.967 265.033 110 264.9 110H261.55ZM267.266 110.98C267.199 111.067 267.126 111.117 267.046 111.13C266.973 111.143 266.906 111.13 266.846 111.09C266.793 111.05 266.763 110.99 266.756 110.91C266.749 110.83 266.783 110.743 266.856 110.65C266.969 110.503 267.046 110.357 267.086 110.21C267.133 110.063 267.156 109.927 267.156 109.8L267.196 110.04C267.009 110.04 266.856 109.987 266.736 109.88C266.623 109.767 266.566 109.62 266.566 109.44C266.566 109.267 266.619 109.127 266.726 109.02C266.833 108.913 266.976 108.86 267.156 108.86C267.336 108.86 267.479 108.923 267.586 109.05C267.699 109.17 267.756 109.35 267.756 109.59C267.756 109.73 267.739 109.877 267.706 110.03C267.679 110.19 267.633 110.35 267.566 110.51C267.499 110.67 267.399 110.827 267.266 110.98ZM271.33 110.09C270.517 110.09 269.897 109.78 269.47 109.16C269.05 108.533 268.84 107.637 268.84 106.47C268.84 105.677 268.933 105.013 269.12 104.48C269.313 103.947 269.593 103.543 269.96 103.27C270.333 102.997 270.79 102.86 271.33 102.86C272.15 102.86 272.77 103.167 273.19 103.78C273.61 104.387 273.82 105.28 273.82 106.46C273.82 107.24 273.723 107.9 273.53 108.44C273.343 108.98 273.067 109.39 272.7 109.67C272.333 109.95 271.877 110.09 271.33 110.09ZM271.33 109.3C271.863 109.3 272.26 109.07 272.52 108.61C272.78 108.15 272.91 107.433 272.91 106.46C272.91 105.487 272.78 104.777 272.52 104.33C272.267 103.877 271.87 103.65 271.33 103.65C270.797 103.65 270.4 103.877 270.14 104.33C269.88 104.777 269.75 105.487 269.75 106.46C269.75 107.433 269.88 108.15 270.14 108.61C270.4 109.07 270.797 109.3 271.33 109.3ZM276.826 110.09C276.526 110.09 276.213 110.033 275.886 109.92C275.566 109.807 275.28 109.643 275.026 109.43C274.953 109.377 274.903 109.31 274.876 109.23C274.856 109.143 274.856 109.063 274.876 108.99C274.896 108.91 274.933 108.843 274.986 108.79C275.046 108.73 275.116 108.697 275.196 108.69C275.276 108.683 275.363 108.713 275.456 108.78C275.683 108.96 275.913 109.09 276.146 109.17C276.38 109.25 276.613 109.29 276.846 109.29C277.266 109.29 277.623 109.187 277.916 108.98C278.21 108.767 278.433 108.453 278.586 108.04C278.74 107.62 278.816 107.103 278.816 106.49V105.6H278.916C278.876 105.967 278.766 106.287 278.586 106.56C278.406 106.827 278.173 107.033 277.886 107.18C277.606 107.327 277.29 107.4 276.936 107.4C276.523 107.4 276.156 107.303 275.836 107.11C275.523 106.917 275.273 106.653 275.086 106.32C274.906 105.98 274.816 105.593 274.816 105.16C274.816 104.713 274.913 104.317 275.106 103.97C275.3 103.623 275.566 103.353 275.906 103.16C276.246 102.96 276.636 102.86 277.076 102.86C277.643 102.86 278.12 102.997 278.506 103.27C278.9 103.537 279.2 103.93 279.406 104.45C279.613 104.963 279.716 105.583 279.716 106.31C279.716 106.923 279.65 107.463 279.516 107.93C279.39 108.397 279.2 108.79 278.946 109.11C278.7 109.43 278.396 109.673 278.036 109.84C277.683 110.007 277.28 110.09 276.826 110.09ZM277.146 106.63C277.426 106.63 277.673 106.567 277.886 106.44C278.106 106.307 278.276 106.127 278.396 105.9C278.516 105.673 278.576 105.413 278.576 105.12C278.576 104.82 278.516 104.56 278.396 104.34C278.276 104.113 278.106 103.937 277.886 103.81C277.673 103.683 277.426 103.62 277.146 103.62C276.86 103.62 276.61 103.683 276.396 103.81C276.183 103.937 276.013 104.113 275.886 104.34C275.766 104.56 275.706 104.82 275.706 105.12C275.706 105.413 275.766 105.673 275.886 105.9C276.013 106.127 276.183 106.307 276.396 106.44C276.61 106.567 276.86 106.63 277.146 106.63Z" fill="#6F6F6F"/>
<path opacity="0.8" d="M261.55 60C261.423 60 261.323 59.9633 261.25 59.89C261.177 59.8167 261.14 59.72 261.14 59.6C261.14 59.4733 261.177 59.3767 261.25 59.31C261.323 59.2433 261.423 59.21 261.55 59.21H262.81V53.72H263.29L261.83 54.66C261.737 54.72 261.647 54.7467 261.56 54.74C261.48 54.7267 261.41 54.6933 261.35 54.64C261.29 54.58 261.25 54.51 261.23 54.43C261.21 54.35 261.213 54.27 261.24 54.19C261.273 54.1033 261.34 54.0333 261.44 53.98L262.82 53.08C262.92 53.02 263.013 52.9733 263.1 52.94C263.193 52.9 263.283 52.88 263.37 52.88C263.47 52.88 263.557 52.91 263.63 52.97C263.703 53.03 263.74 53.1267 263.74 53.26V59.21H264.9C265.033 59.21 265.133 59.2433 265.2 59.31C265.273 59.3767 265.31 59.4733 265.31 59.6C265.31 59.7267 265.273 59.8267 265.2 59.9C265.133 59.9667 265.033 60 264.9 60H261.55ZM267.266 60.98C267.199 61.0667 267.126 61.1167 267.046 61.13C266.973 61.1433 266.906 61.13 266.846 61.09C266.793 61.05 266.763 60.99 266.756 60.91C266.749 60.83 266.783 60.7433 266.856 60.65C266.969 60.5033 267.046 60.3567 267.086 60.21C267.133 60.0633 267.156 59.9267 267.156 59.8L267.196 60.04C267.009 60.04 266.856 59.9867 266.736 59.88C266.623 59.7667 266.566 59.62 266.566 59.44C266.566 59.2667 266.619 59.1267 266.726 59.02C266.833 58.9133 266.976 58.86 267.156 58.86C267.336 58.86 267.479 58.9233 267.586 59.05C267.699 59.17 267.756 59.35 267.756 59.59C267.756 59.73 267.739 59.8767 267.706 60.03C267.679 60.19 267.633 60.35 267.566 60.51C267.499 60.67 267.399 60.8267 267.266 60.98ZM269.88 60C269.753 60 269.653 59.9633 269.58 59.89C269.507 59.8167 269.47 59.72 269.47 59.6C269.47 59.4733 269.507 59.3767 269.58 59.31C269.653 59.2433 269.753 59.21 269.88 59.21H271.14V53.72H271.62L270.16 54.66C270.067 54.72 269.977 54.7467 269.89 54.74C269.81 54.7267 269.74 54.6933 269.68 54.64C269.62 54.58 269.58 54.51 269.56 54.43C269.54 54.35 269.543 54.27 269.57 54.19C269.603 54.1033 269.67 54.0333 269.77 53.98L271.15 53.08C271.25 53.02 271.343 52.9733 271.43 52.94C271.523 52.9 271.613 52.88 271.7 52.88C271.8 52.88 271.887 52.91 271.96 52.97C272.033 53.03 272.07 53.1267 272.07 53.26V59.21H273.23C273.363 59.21 273.463 59.2433 273.53 59.31C273.603 59.3767 273.64 59.4733 273.64 59.6C273.64 59.7267 273.603 59.8267 273.53 59.9C273.463 59.9667 273.363 60 273.23 60H269.88ZM275.626 60C275.466 60 275.346 59.9633 275.266 59.89C275.193 59.81 275.156 59.7033 275.156 59.57C275.156 59.49 275.176 59.41 275.216 59.33C275.256 59.25 275.316 59.17 275.396 59.09L277.586 56.74C277.92 56.3867 278.16 56.06 278.306 55.76C278.453 55.46 278.526 55.1567 278.526 54.85C278.526 54.4633 278.406 54.17 278.166 53.97C277.933 53.7633 277.59 53.66 277.136 53.66C276.856 53.66 276.586 53.7067 276.326 53.8C276.073 53.8867 275.823 54.0233 275.576 54.21C275.483 54.2767 275.396 54.3067 275.316 54.3C275.236 54.2933 275.166 54.2633 275.106 54.21C275.053 54.15 275.013 54.0833 274.986 54.01C274.966 53.93 274.97 53.8467 274.996 53.76C275.023 53.6733 275.08 53.6 275.166 53.54C275.44 53.3267 275.756 53.16 276.116 53.04C276.476 52.92 276.846 52.86 277.226 52.86C277.706 52.86 278.11 52.9367 278.436 53.09C278.77 53.2367 279.023 53.4533 279.196 53.74C279.37 54.02 279.456 54.3633 279.456 54.77C279.456 55.05 279.41 55.3267 279.316 55.6C279.223 55.8667 279.083 56.14 278.896 56.42C278.716 56.7 278.483 56.99 278.196 57.29L276.116 59.48V59.21H279.396C279.53 59.21 279.63 59.2433 279.696 59.31C279.77 59.3767 279.806 59.4733 279.806 59.6C279.806 59.7267 279.77 59.8267 279.696 59.9C279.63 59.9667 279.53 60 279.396 60H275.626Z" fill="#6F6F6F"/>
<rect x="255" y="73" width="31" height="20" rx="5" fill="#FFDC3C"/>
<path opacity="0.8" d="M261.55 86C261.423 86 261.323 85.9633 261.25 85.89C261.177 85.8167 261.14 85.72 261.14 85.6C261.14 85.4733 261.177 85.3767 261.25 85.31C261.323 85.2433 261.423 85.21 261.55 85.21H262.81V79.72H263.29L261.83 80.66C261.737 80.72 261.647 80.7467 261.56 80.74C261.48 80.7267 261.41 80.6933 261.35 80.64C261.29 80.58 261.25 80.51 261.23 80.43C261.21 80.35 261.213 80.27 261.24 80.19C261.273 80.1033 261.34 80.0333 261.44 79.98L262.82 79.08C262.92 79.02 263.013 78.9733 263.1 78.94C263.193 78.9 263.283 78.88 263.37 78.88C263.47 78.88 263.557 78.91 263.63 78.97C263.703 79.03 263.74 79.1267 263.74 79.26V85.21H264.9C265.033 85.21 265.133 85.2433 265.2 85.31C265.273 85.3767 265.31 85.4733 265.31 85.6C265.31 85.7267 265.273 85.8267 265.2 85.9C265.133 85.9667 265.033 86 264.9 86H261.55ZM267.266 86.98C267.199 87.0667 267.126 87.1167 267.046 87.13C266.973 87.1433 266.906 87.13 266.846 87.09C266.793 87.05 266.763 86.99 266.756 86.91C266.749 86.83 266.783 86.7433 266.856 86.65C266.969 86.5033 267.046 86.3567 267.086 86.21C267.133 86.0633 267.156 85.9267 267.156 85.8L267.196 86.04C267.009 86.04 266.856 85.9867 266.736 85.88C266.623 85.7667 266.566 85.62 266.566 85.44C266.566 85.2667 266.619 85.1267 266.726 85.02C266.833 84.9133 266.976 84.86 267.156 84.86C267.336 84.86 267.479 84.9233 267.586 85.05C267.699 85.17 267.756 85.35 267.756 85.59C267.756 85.73 267.739 85.8767 267.706 86.03C267.679 86.19 267.633 86.35 267.566 86.51C267.499 86.67 267.399 86.8267 267.266 86.98ZM269.88 86C269.753 86 269.653 85.9633 269.58 85.89C269.507 85.8167 269.47 85.72 269.47 85.6C269.47 85.4733 269.507 85.3767 269.58 85.31C269.653 85.2433 269.753 85.21 269.88 85.21H271.14V79.72H271.62L270.16 80.66C270.067 80.72 269.977 80.7467 269.89 80.74C269.81 80.7267 269.74 80.6933 269.68 80.64C269.62 80.58 269.58 80.51 269.56 80.43C269.54 80.35 269.543 80.27 269.57 80.19C269.603 80.1033 269.67 80.0333 269.77 79.98L271.15 79.08C271.25 79.02 271.343 78.9733 271.43 78.94C271.523 78.9 271.613 78.88 271.7 78.88C271.8 78.88 271.887 78.91 271.96 78.97C272.033 79.03 272.07 79.1267 272.07 79.26V85.21H273.23C273.363 85.21 273.463 85.2433 273.53 85.31C273.603 85.3767 273.64 85.4733 273.64 85.6C273.64 85.7267 273.603 85.8267 273.53 85.9C273.463 85.9667 273.363 86 273.23 86H269.88ZM277.326 86.09C276.513 86.09 275.893 85.78 275.466 85.16C275.046 84.5333 274.836 83.6367 274.836 82.47C274.836 81.6767 274.93 81.0133 275.116 80.48C275.31 79.9467 275.59 79.5433 275.956 79.27C276.33 78.9967 276.786 78.86 277.326 78.86C278.146 78.86 278.766 79.1667 279.186 79.78C279.606 80.3867 279.816 81.28 279.816 82.46C279.816 83.24 279.72 83.9 279.526 84.44C279.34 84.98 279.063 85.39 278.696 85.67C278.33 85.95 277.873 86.09 277.326 86.09ZM277.326 85.3C277.86 85.3 278.256 85.07 278.516 84.61C278.776 84.15 278.906 83.4333 278.906 82.46C278.906 81.4867 278.776 80.7767 278.516 80.33C278.263 79.8767 277.866 79.65 277.326 79.65C276.793 79.65 276.396 79.8767 276.136 80.33C275.876 80.7767 275.746 81.4867 275.746 82.46C275.746 83.4333 275.876 84.15 276.136 84.61C276.396 85.07 276.793 85.3 277.326 85.3Z" fill="#353535"/>
<path opacity="0.8" d="M261.55 10C261.423 10 261.323 9.96333 261.25 9.89C261.177 9.81667 261.14 9.72 261.14 9.6C261.14 9.47333 261.177 9.37667 261.25 9.31C261.323 9.24333 261.423 9.21 261.55 9.21H262.81V3.72H263.29L261.83 4.66C261.737 4.72 261.647 4.74667 261.56 4.74C261.48 4.72667 261.41 4.69333 261.35 4.64C261.29 4.58 261.25 4.51 261.23 4.43C261.21 4.35 261.213 4.27 261.24 4.19C261.273 4.10333 261.34 4.03333 261.44 3.98L262.82 3.08C262.92 3.02 263.013 2.97333 263.1 2.94C263.193 2.9 263.283 2.88 263.37 2.88C263.47 2.88 263.557 2.91 263.63 2.97C263.703 3.03 263.74 3.12667 263.74 3.26V9.21H264.9C265.033 9.21 265.133 9.24333 265.2 9.31C265.273 9.37667 265.31 9.47333 265.31 9.6C265.31 9.72667 265.273 9.82667 265.2 9.9C265.133 9.96667 265.033 10 264.9 10H261.55ZM267.266 10.98C267.199 11.0667 267.126 11.1167 267.046 11.13C266.973 11.1433 266.906 11.13 266.846 11.09C266.793 11.05 266.763 10.99 266.756 10.91C266.749 10.83 266.783 10.7433 266.856 10.65C266.969 10.5033 267.046 10.3567 267.086 10.21C267.133 10.0633 267.156 9.92667 267.156 9.8L267.196 10.04C267.009 10.04 266.856 9.98667 266.736 9.88C266.623 9.76667 266.566 9.62 266.566 9.44C266.566 9.26667 266.619 9.12667 266.726 9.02C266.833 8.91333 266.976 8.86 267.156 8.86C267.336 8.86 267.479 8.92333 267.586 9.05C267.699 9.17 267.756 9.35 267.756 9.59C267.756 9.73 267.739 9.87667 267.706 10.03C267.679 10.19 267.633 10.35 267.566 10.51C267.499 10.67 267.399 10.8267 267.266 10.98ZM269.88 10C269.753 10 269.653 9.96333 269.58 9.89C269.507 9.81667 269.47 9.72 269.47 9.6C269.47 9.47333 269.507 9.37667 269.58 9.31C269.653 9.24333 269.753 9.21 269.88 9.21H271.14V3.72H271.62L270.16 4.66C270.067 4.72 269.977 4.74667 269.89 4.74C269.81 4.72667 269.74 4.69333 269.68 4.64C269.62 4.58 269.58 4.51 269.56 4.43C269.54 4.35 269.543 4.27 269.57 4.19C269.603 4.10333 269.67 4.03333 269.77 3.98L271.15 3.08C271.25 3.02 271.343 2.97333 271.43 2.94C271.523 2.9 271.613 2.88 271.7 2.88C271.8 2.88 271.887 2.91 271.96 2.97C272.033 3.03 272.07 3.12667 272.07 3.26V9.21H273.23C273.363 9.21 273.463 9.24333 273.53 9.31C273.603 9.37667 273.64 9.47333 273.64 9.6C273.64 9.72667 273.603 9.82667 273.53 9.9C273.463 9.96667 273.363 10 273.23 10H269.88ZM278.496 10.07C278.35 10.07 278.236 10.03 278.156 9.95C278.076 9.87 278.036 9.75333 278.036 9.6V8.53H275.256C275.11 8.53 274.99 8.49667 274.896 8.43C274.81 8.36333 274.766 8.26 274.766 8.12C274.766 8.04 274.786 7.95667 274.826 7.87C274.866 7.78333 274.936 7.66667 275.036 7.52L278.006 3.19C278.08 3.09 278.156 3.01333 278.236 2.96C278.323 2.90667 278.42 2.88 278.526 2.88C278.646 2.88 278.746 2.92 278.826 3C278.913 3.07333 278.956 3.19 278.956 3.35V7.74H279.636C279.783 7.74 279.893 7.77333 279.966 7.84C280.04 7.90667 280.076 8.00333 280.076 8.13C280.076 8.26333 280.04 8.36333 279.966 8.43C279.893 8.49667 279.783 8.53 279.636 8.53H278.956V9.6C278.956 9.75333 278.916 9.87 278.836 9.95C278.756 10.03 278.643 10.07 278.496 10.07ZM278.036 7.74V4.04H278.286L275.586 7.99V7.74H278.036Z" fill="#6F6F6F"/>
<line x1="1" y1="6.5" x2="251" y2="6.5" stroke="#616161"/>
<line x1="1" y1="56.5" x2="251" y2="56.5" stroke="#616161"/>
<line x1="1" y1="82.5" x2="199" y2="82.5" stroke="#FFDC3C" stroke-dasharray="10 10"/>
<line x1="1" y1="106.5" x2="251" y2="106.5" stroke="#616161"/>
<line x1="1" y1="156.5" x2="251" y2="156.5" stroke="#616161"/>
<line x1="1" y1="206.5" x2="251" y2="206.5" stroke="#616161"/>
<path d="M242 83.5C238.582 83.5 216.115 82.9993 207 80.2926C197.885 77.5859 189.482 94.3834 189.482 100.699C189.482 107.015 173.53 110.624 174.67 112.428C175.809 114.233 167.833 148.518 166.694 152.126C165.554 155.735 149.603 161.149 140.488 169.269C131.373 177.389 126.815 170.171 122.257 169.269C117.7 168.367 113.142 190.923 112.003 189.118C110.864 187.314 102.888 185.509 98.3302 190.923C93.7726 196.336 89.2151 190.923 86.9363 187.314C84.6575 183.705 82.3787 190.923 77.8211 194.532C74.1751 197.419 64.908 193.329 60.7302 190.923C50.3201 196.329 23.8 206.668 1 204.771" stroke="#FFDC3C"/>
<circle cx="239" cy="83" r="5" fill="white"/>
<circle cx="239" cy="83" r="3" fill="#FFDC3C"/>
</svg>
