<svg width="66" height="18" viewBox="0 0 66 18" fill="none" xmlns="http://www.w3.org/2000/svg">
<path d="M11.1758 1.09021C11.2 0.904419 11.042 0.746103 10.8566 0.77027L5.21989 1.50503C4.98546 1.53559 4.88803 1.8225 5.0552 1.99002L5.92285 2.54866C6.11399 2.67173 6.14282 2.94027 5.98217 3.10126L2.68826 6.40234C1.89558 7.19675 1.89558 8.48472 2.68826 9.27913C3.48094 10.0735 4.76614 10.0735 5.55882 9.27912L8.85254 5.97823C9.01324 5.81718 9.28132 5.84616 9.40406 6.03785L9.95872 6.90419C10.1259 7.07171 10.4122 6.97407 10.4427 6.73913L11.1758 1.09021Z" fill="white"/>
<path d="M3.55508 15.8941C2.7624 15.0997 2.7624 13.8118 3.55508 13.0174L7.42773 9.13633C8.22041 8.34193 9.5056 8.34193 10.2983 9.13633C11.091 9.93073 11.091 11.2187 10.2983 12.0131L6.42564 15.8941C5.63296 16.6885 4.34776 16.6885 3.55508 15.8941Z" fill="white"/>
<path d="M2.36542 6.81821C1.80491 7.79115 2.13754 9.03524 3.10837 9.59697L6.90781 11.7953L6.91438 11.7991C7.65744 12.2327 8.02406 13.0671 7.89891 13.871C7.82228 14.3634 7.50132 14.7803 7.16275 15.1452L10.1645 12.1355C10.3415 11.9869 10.4959 11.8052 10.6181 11.5932C11.1786 10.6203 10.846 9.37618 9.87512 8.81445L6.07569 6.61612L6.06912 6.6123C5.32606 6.17872 4.95944 5.3443 5.08458 4.54037C5.16122 4.04804 5.48217 3.63114 5.82074 3.26624L2.819 6.27593C2.64203 6.42456 2.48756 6.6062 2.36542 6.81821Z" fill="white"/>
<path d="M21.5033 13.4875C20.9635 13.4875 20.4236 13.4216 19.8838 13.2899C19.3439 13.1582 18.8758 12.9653 18.4793 12.7112C18.2431 12.57 18.0955 12.3818 18.0365 12.1466C17.9774 11.9019 17.9901 11.6667 18.0744 11.4408C18.1588 11.215 18.2937 11.055 18.4793 10.9609C18.6649 10.8668 18.8884 10.8903 19.1499 11.0315C19.4873 11.2479 19.8627 11.4079 20.276 11.5114C20.6893 11.6149 21.0984 11.6667 21.5033 11.6667C22.1107 11.6667 22.5451 11.5632 22.8066 11.3561C23.0765 11.1397 23.2115 10.8715 23.2115 10.5516C23.2115 10.2787 23.1187 10.0623 22.9331 9.90228C22.7475 9.74231 22.4228 9.60586 21.9588 9.49294L20.5291 9.15418C18.9348 8.77778 18.1377 7.85559 18.1377 6.38762C18.1377 5.75715 18.2895 5.20666 18.5932 4.73616C18.8969 4.25624 19.3186 3.88455 19.8585 3.62106C20.4068 3.35758 21.0394 3.22584 21.7564 3.22584C22.2288 3.22584 22.6927 3.29171 23.1482 3.42345C23.6037 3.54578 24.0044 3.72928 24.3502 3.97394C24.5611 4.11509 24.6918 4.29859 24.7425 4.52443C24.7931 4.75027 24.7762 4.9667 24.6918 5.17372C24.6159 5.38075 24.481 5.5266 24.287 5.61129C24.1014 5.69598 23.8694 5.66305 23.5911 5.51249C23.3127 5.35252 23.0175 5.23489 22.7054 5.15961C22.3933 5.08433 22.0727 5.04669 21.7437 5.04669C21.2123 5.04669 20.799 5.16431 20.5038 5.39957C20.217 5.62541 20.0736 5.92182 20.0736 6.28882C20.0736 6.56171 20.1621 6.78284 20.3393 6.95223C20.5164 7.12161 20.8243 7.25805 21.2629 7.36156L22.6927 7.70033C24.3291 8.09555 25.1473 8.9895 25.1473 10.3822C25.1473 11.0033 24.9955 11.549 24.6918 12.0195C24.3966 12.4806 23.9749 12.8429 23.4266 13.1064C22.8867 13.3605 22.2456 13.4875 21.5033 13.4875Z" fill="white"/>
<path d="M29.2189 13.4875C27.4728 13.4875 26.5998 12.5418 26.5998 10.6504V7.99674H26.0683C25.5707 7.99674 25.3218 7.73326 25.3218 7.2063C25.3218 6.66992 25.5707 6.40174 26.0683 6.40174H26.5998V5.32899C26.5998 4.60442 26.9203 4.24213 27.5614 4.24213C28.194 4.24213 28.5103 4.60442 28.5103 5.32899V6.40174H29.7123C30.2016 6.40174 30.4462 6.66992 30.4462 7.2063C30.4462 7.73326 30.2016 7.99674 29.7123 7.99674H28.5103V10.5657C28.5103 10.9609 28.5905 11.2573 28.7507 11.4549C28.9194 11.6526 29.1851 11.7514 29.5479 11.7514C29.6744 11.7514 29.7925 11.7372 29.9021 11.709C30.0118 11.6808 30.113 11.662 30.2058 11.6526C30.3239 11.6431 30.4209 11.6855 30.4968 11.7796C30.5727 11.8737 30.6107 12.0666 30.6107 12.3583C30.6107 12.5936 30.577 12.7959 30.5095 12.9653C30.442 13.1252 30.3239 13.2429 30.1552 13.3181C30.0455 13.3652 29.8937 13.4028 29.6997 13.4311C29.5141 13.4687 29.3538 13.4875 29.2189 13.4875Z" fill="white"/>
<path d="M34.2711 13.4875C33.6047 13.4875 33.0227 13.3417 32.525 13.0499C32.0358 12.7488 31.6562 12.3301 31.3863 11.7937C31.1163 11.2479 30.9814 10.6033 30.9814 9.85994C30.9814 9.12595 31.1163 8.49077 31.3863 7.9544C31.6562 7.40861 32.0358 6.98987 32.525 6.69815C33.0227 6.40644 33.6047 6.26059 34.2711 6.26059C34.9375 6.26059 35.5153 6.40644 36.0045 6.69815C36.5022 6.98987 36.886 7.40861 37.156 7.9544C37.4343 8.49077 37.5735 9.12595 37.5735 9.85994C37.5735 10.6033 37.4343 11.2479 37.156 11.7937C36.886 12.3301 36.5022 12.7488 36.0045 13.0499C35.5153 13.3417 34.9375 13.4875 34.2711 13.4875ZM34.2711 11.8925C34.676 11.8925 35.005 11.7278 35.258 11.3985C35.5195 11.0691 35.6503 10.5563 35.6503 9.85994C35.6503 9.173 35.5195 8.66956 35.258 8.34962C35.005 8.02027 34.676 7.85559 34.2711 7.85559C33.8662 7.85559 33.5372 8.02027 33.2842 8.34962C33.0311 8.66956 32.9046 9.173 32.9046 9.85994C32.9046 10.5563 33.0311 11.0691 33.2842 11.3985C33.5372 11.7278 33.8662 11.8925 34.2711 11.8925Z" fill="white"/>
<path d="M41.6334 13.4875C40.9585 13.4875 40.3681 13.3417 39.862 13.0499C39.3643 12.7488 38.9805 12.3254 38.7106 11.7796C38.4406 11.2338 38.3057 10.5892 38.3057 9.84582C38.3057 9.10243 38.4406 8.46254 38.7106 7.92617C38.9805 7.38979 39.3643 6.98046 39.862 6.69815C40.3681 6.40644 40.9585 6.26059 41.6334 6.26059C41.8949 6.26059 42.1732 6.29823 42.4684 6.37351C42.7721 6.43938 43.0631 6.557 43.3415 6.72638C43.5524 6.83931 43.6831 6.99928 43.7337 7.2063C43.7843 7.40391 43.7717 7.60152 43.6958 7.79913C43.6283 7.99674 43.5144 8.1426 43.3541 8.2367C43.2023 8.32139 43.021 8.30257 42.8101 8.18024C42.4727 7.98263 42.1437 7.88382 41.8232 7.88382C41.3255 7.88382 40.9375 8.05791 40.6591 8.40608C40.3892 8.74484 40.2542 9.22946 40.2542 9.85994C40.2542 10.481 40.3892 10.9703 40.6591 11.3279C40.9375 11.6761 41.3255 11.8502 41.8232 11.8502C41.975 11.8502 42.1353 11.8313 42.304 11.7937C42.4727 11.7467 42.6414 11.6714 42.8101 11.5679C43.021 11.4455 43.2023 11.4314 43.3541 11.5255C43.5144 11.6196 43.6241 11.7655 43.6831 11.9631C43.7422 12.1513 43.7464 12.3489 43.6958 12.5559C43.6452 12.7629 43.5186 12.9229 43.3162 13.0358C43.0294 13.1958 42.7426 13.3087 42.4558 13.3746C42.169 13.4499 41.8949 13.4875 41.6334 13.4875Z" fill="white"/>
<path d="M45.7397 13.4593C45.0986 13.4593 44.7781 13.097 44.7781 12.3724V4.34093C44.7781 3.61636 45.0986 3.25407 45.7397 3.25407C46.3723 3.25407 46.6887 3.61636 46.6887 4.34093V9.2671H46.714L48.5486 6.99457C48.7342 6.75932 48.9029 6.58523 49.0547 6.47231C49.2066 6.34998 49.4174 6.28882 49.6874 6.28882C49.9489 6.28882 50.1513 6.3641 50.2947 6.51466C50.4381 6.65581 50.5098 6.83931 50.5098 7.06515C50.5098 7.28158 50.4254 7.4933 50.2567 7.70033L48.6372 9.71878L50.4718 12.076C50.6321 12.3018 50.6996 12.523 50.6743 12.7394C50.6574 12.9464 50.5731 13.1205 50.4212 13.2617C50.2694 13.3934 50.0754 13.4593 49.8392 13.4593C49.544 13.4593 49.312 13.3981 49.1433 13.2758C48.983 13.1535 48.8101 12.9653 48.6245 12.7112L46.714 10.3398H46.6887V12.3724C46.6887 13.097 46.3723 13.4593 45.7397 13.4593Z" fill="white"/>
<path d="M52.4155 5.13138C52.0613 5.13138 51.7871 5.04198 51.5931 4.86319C51.4075 4.67499 51.3147 4.41151 51.3147 4.07275C51.3147 3.72458 51.4075 3.46109 51.5931 3.2823C51.7871 3.0941 52.0613 3 52.4155 3C53.141 3 53.5037 3.35758 53.5037 4.07275C53.5037 4.7785 53.141 5.13138 52.4155 5.13138ZM52.4155 13.4452C52.1034 13.4452 51.863 13.3464 51.6943 13.1488C51.534 12.9417 51.4539 12.6547 51.4539 12.2877V7.46037C51.4539 6.67933 51.7745 6.28882 52.4155 6.28882C52.7192 6.28882 52.9512 6.39233 53.1114 6.59935C53.2801 6.79696 53.3645 7.08397 53.3645 7.46037V12.2877C53.3645 12.6547 53.2844 12.9417 53.1241 13.1488C52.9638 13.3464 52.7276 13.4452 52.4155 13.4452Z" fill="white"/>
<path d="M57.8889 13.4875C56.1428 13.4875 55.2697 12.5418 55.2697 10.6504V7.99674H54.7383C54.2406 7.99674 53.9918 7.73326 53.9918 7.2063C53.9918 6.66992 54.2406 6.40174 54.7383 6.40174H55.2697V5.32899C55.2697 4.60442 55.5903 4.24213 56.2313 4.24213C56.864 4.24213 57.1803 4.60442 57.1803 5.32899V6.40174H58.3823C58.8716 6.40174 59.1162 6.66992 59.1162 7.2063C59.1162 7.73326 58.8716 7.99674 58.3823 7.99674H57.1803V10.5657C57.1803 10.9609 57.2604 11.2573 57.4207 11.4549C57.5894 11.6526 57.8551 11.7514 58.2178 11.7514C58.3444 11.7514 58.4625 11.7372 58.5721 11.709C58.6818 11.6808 58.783 11.662 58.8758 11.6526C58.9939 11.6431 59.0909 11.6855 59.1668 11.7796C59.2427 11.8737 59.2807 12.0666 59.2807 12.3583C59.2807 12.5936 59.2469 12.7959 59.1795 12.9653C59.112 13.1252 58.9939 13.2429 58.8252 13.3181C58.7155 13.3652 58.5637 13.4028 58.3697 13.4311C58.1841 13.4687 58.0238 13.4875 57.8889 13.4875Z" fill="white"/>
<path d="M61.9036 16C61.5662 16 61.3257 15.8588 61.1823 15.5765C61.0474 15.3037 61.0558 14.9837 61.2077 14.6167L61.8783 12.9511L59.8158 7.6721C59.6809 7.3051 59.6809 6.98516 59.8158 6.71227C59.9592 6.42997 60.2418 6.28882 60.6636 6.28882C60.8913 6.28882 61.0727 6.34998 61.2077 6.47231C61.3511 6.58523 61.4818 6.80637 61.5999 7.13572L62.8905 10.8056L64.2317 7.12161C64.3498 6.80166 64.4805 6.58523 64.6239 6.47231C64.7757 6.34998 64.9782 6.28882 65.2312 6.28882C65.5518 6.28882 65.7753 6.42997 65.9018 6.71227C66.0368 6.98516 66.0326 7.3004 65.8892 7.65798L62.9158 15.1813C62.7893 15.5013 62.6459 15.7177 62.4856 15.8306C62.3338 15.9435 62.1397 16 61.9036 16Z" fill="white"/>
<defs>
<linearGradient id="paint0_linear_17_3596" x1="9.21732" y1="3.21433" x2="-3.10042" y2="14.6669" gradientUnits="userSpaceOnUse">
<stop stop-color="#0C8DF8"/>
<stop offset="1" stop-color="#033A68"/>
</linearGradient>
<linearGradient id="paint1_linear_17_3596" x1="5.10602" y1="14.4269" x2="11.7477" y2="7.71774" gradientUnits="userSpaceOnUse">
<stop stop-color="#0C8DF8"/>
<stop offset="1" stop-color="#033A68"/>
</linearGradient>
</defs>
</svg>
