<svg width="22" height="22" viewBox="0 0 22 22" fill="none" xmlns="http://www.w3.org/2000/svg">
<path d="M11 5.225V20.625M11 5.225H7.59687C7.09545 5.225 6.61456 5.02219 6.26 4.66118M11 5.225C11 5.225 10.2437 1.375 7.59687 1.375C7.09545 1.375 6.61456 1.57781 6.26 1.93882C5.90544 2.29983 5.70625 2.78946 5.70625 3.3C5.70625 3.81054 5.90544 4.30017 6.26 4.66118M11 5.225H14.4031C14.9045 5.225 15.3854 5.02219 15.74 4.66118M11 5.225C11 5.225 11.7562 1.375 14.4031 1.375C14.9045 1.375 15.3854 1.57781 15.74 1.93882C16.0946 2.29983 16.2937 2.78946 16.2937 3.3C16.2937 3.81054 16.0946 4.30017 15.74 4.66118M6.26 4.66118L2.915 2.85577M15.74 4.66118L19.085 2.85577M18.7 10.0375V17.545C18.7 18.6231 18.7 19.1622 18.4902 19.5739C18.3056 19.9361 18.0111 20.2306 17.6489 20.4152C17.2371 20.625 16.6981 20.625 15.62 20.625L6.38 20.625C5.3019 20.625 4.76285 20.625 4.35107 20.4152C3.98886 20.2306 3.69437 19.9361 3.50981 19.5739C3.3 19.1621 3.3 18.6231 3.3 17.545V10.0375M1.375 6.765L1.375 8.4975C1.375 9.03655 1.375 9.30607 1.47991 9.51197C1.57218 9.69307 1.71943 9.84031 1.90053 9.93259C2.10642 10.0375 2.37595 10.0375 2.915 10.0375L19.085 10.0375C19.6241 10.0375 19.8936 10.0375 20.0995 9.93259C20.2806 9.84032 20.4278 9.69307 20.5201 9.51197C20.625 9.30608 20.625 9.03655 20.625 8.4975V6.765C20.625 6.22595 20.625 5.95642 20.5201 5.75053C20.4278 5.56943 20.2806 5.42218 20.0995 5.32991C19.8936 5.225 19.624 5.225 19.085 5.225L2.915 5.225C2.37595 5.225 2.10642 5.225 1.90053 5.32991C1.71943 5.42218 1.57218 5.56943 1.47991 5.75053C1.375 5.95642 1.375 6.22595 1.375 6.765Z" stroke="white" stroke-linecap="round" stroke-linejoin="round"/>
</svg>
