<svg width="23" height="27" viewBox="0 0 23 27" fill="none" xmlns="http://www.w3.org/2000/svg">
<path d="M1.20608 5.05503C0.982721 5.32 0.869749 5.66068 0.890523 6.0066V21.0508C0.869758 21.397 0.982937 21.7379 1.20662 22.0029L1.25475 22.0505L9.76862 13.6307V13.4338L1.25475 5.00745L1.20608 5.05503Z" fill="url(#paint0_linear_9_354)"/>
<path d="M12.5857 16.4401L9.76868 13.6308V13.4339L12.5857 10.618L12.6475 10.6524L16.0217 12.5501C16.9837 13.0872 16.9837 13.9709 16.0217 14.5151L12.6617 16.4056L12.5857 16.4401Z" fill="url(#paint1_linear_9_354)"/>
<path d="M12.6682 16.399L9.76863 13.529L1.20609 22.0029C1.61078 22.3551 2.21071 22.3721 2.63509 22.044L12.6742 16.399" fill="url(#paint2_linear_9_354)"/>
<path d="M12.6682 10.6589L2.62908 5.01399C2.42271 4.85469 2.16757 4.77174 1.90698 4.77921C1.64639 4.78669 1.39642 4.88414 1.19952 5.055L9.76863 13.529L12.6682 10.6589Z" fill="url(#paint3_linear_9_354)"/>
<path opacity="0.2" d="M12.5856 16.3378L2.62853 21.9488C2.42953 22.0957 2.1887 22.175 1.94137 22.175C1.69404 22.175 1.45322 22.0957 1.25421 21.9488L1.20663 21.9964L1.25421 22.044C1.66109 22.3475 2.2222 22.3475 2.62853 22.044L12.6688 16.3991L12.5867 16.3378H12.5856Z" fill="black"/>
<path opacity="0.12" fill-rule="evenodd" clip-rule="evenodd" d="M12.5857 16.3378L16.0217 14.4128C16.1963 14.3279 16.349 14.2041 16.4681 14.0508C16.5872 13.8976 16.6695 13.7191 16.7086 13.529C16.6907 13.7382 16.6176 13.939 16.497 14.111C16.3764 14.2829 16.2124 14.4198 16.0217 14.5079L12.6475 16.399L12.5857 16.3378ZM0.888942 21.088C0.89988 21.3872 1.0109 21.6759 1.20613 21.9078L1.25481 21.9625L1.20668 22.0101C0.989688 21.753 0.876391 21.4242 0.888942 21.088ZM0.888942 21.088C0.888942 21.0782 0.889489 21.0678 0.890582 21.0579V20.9557C0.887869 20.9997 0.887322 21.0439 0.888942 21.088Z" fill="black"/>
<path opacity="0.25" d="M2.62853 5.10976L16.0217 12.6453C16.1963 12.7301 16.349 12.8539 16.4681 13.0071C16.5872 13.1604 16.6695 13.3389 16.7086 13.529C16.6906 13.3198 16.6176 13.119 16.497 12.9471C16.3763 12.7751 16.2124 12.6382 16.0217 12.5501L2.62798 5.01405C1.66656 4.47702 0.883423 4.92655 0.883423 6.01485V6.11657C0.904204 5.02171 1.67367 4.57272 2.62853 5.11031V5.10976Z" fill="white"/>
<defs>
<linearGradient id="paint0_linear_9_354" x1="6.03943" y1="-5.2138" x2="-7.57468" y2="-1.5557" gradientUnits="userSpaceOnUse">
<stop stop-color="#00A0FF"/>
<stop offset="0.01" stop-color="#00A1FF"/>
<stop offset="0.26" stop-color="#00BEFF"/>
<stop offset="0.51" stop-color="#00D2FF"/>
<stop offset="0.76" stop-color="#00DFFF"/>
<stop offset="1" stop-color="#00E3FF"/>
</linearGradient>
<linearGradient id="paint1_linear_9_354" x1="17.279" y1="6.59183" x2="0.656511" y2="6.59183" gradientUnits="userSpaceOnUse">
<stop stop-color="#FFE000"/>
<stop offset="0.41" stop-color="#FFBD00"/>
<stop offset="0.78" stop-color="#FFA500"/>
<stop offset="1" stop-color="#FF9C00"/>
</linearGradient>
<linearGradient id="paint2_linear_9_354" x1="0.954519" y1="9.12713" x2="-9.82947" y2="27.4565" gradientUnits="userSpaceOnUse">
<stop stop-color="#FF3A44"/>
<stop offset="1" stop-color="#C31162"/>
</linearGradient>
<linearGradient id="paint3_linear_9_354" x1="-5.47956" y1="2.7127" x2="-0.665895" y2="10.8974" gradientUnits="userSpaceOnUse">
<stop stop-color="#32A071"/>
<stop offset="0.07" stop-color="#2DA771"/>
<stop offset="0.48" stop-color="#15CF74"/>
<stop offset="0.8" stop-color="#06E775"/>
<stop offset="1" stop-color="#00F076"/>
</linearGradient>
</defs>
</svg>
